<?xml version="1.0" standalone="no"?>
<!DOCTYPE svg PUBLIC "-//W3C//DTD SVG 20010904//EN"
 "http://www.w3.org/TR/2001/REC-SVG-20010904/DTD/svg10.dtd">
<svg version="1.0" xmlns="http://www.w3.org/2000/svg"
 width="461.000000pt" height="440.000000pt" viewBox="0 0 461.000000 440.000000"
 preserveAspectRatio="xMidYMid meet">

<g transform="translate(0.000000,440.000000) scale(0.100000,-0.100000)"
fill="#000000" stroke="none">
<path d="M1407 3505 c-112 -83 -235 -233 -307 -375 -118 -234 -167 -545 -111
-701 33 -91 86 -166 158 -221 83 -63 158 -90 264 -96 141 -7 261 38 359 137
187 187 183 491 -9 674 -82 78 -163 115 -283 129 -118 13 -136 20 -153 62 -14
32 -13 42 10 123 14 48 49 136 79 196 29 59 50 107 47 107 -3 0 -27 -16 -54
-35z"/>
<path d="M2701 3144 c-223 -60 -377 -294 -341 -519 13 -82 33 -135 78 -203 46
-70 102 -117 192 -160 67 -33 85 -37 171 -40 102 -4 174 10 253 50 56 29 141
112 181 179 39 63 75 85 124 74 39 -8 163 -139 234 -246 46 -70 52 -77 55 -54
10 76 -64 302 -139 426 -68 114 -116 174 -217 271 -126 121 -242 196 -347 224
-64 18 -175 17 -244 -2z"/>
<path d="M2103 1969 c-172 -29 -299 -135 -363 -304 -18 -47 -23 -81 -23 -155
0 -96 3 -108 63 -255 11 -26 10 -36 -4 -67 -9 -19 -29 -41 -43 -47 -41 -19
-209 -41 -318 -42 l-100 -1 83 -40 c283 -135 699 -125 996 24 73 37 165 127
200 196 96 190 68 394 -75 547 -109 116 -265 170 -416 144z"/>
</g>
</svg>
